<svg width="12" height="22" viewBox="0 0 12 22" fill="none" xmlns="http://www.w3.org/2000/svg">
<path d="M7.98633 14.8857C7.98633 14.2985 7.82161 13.833 7.49219 13.4893C7.16992 13.1383 6.61849 12.8161 5.83789 12.5225C5.05729 12.2288 4.38411 11.9388 3.81836 11.6523C3.2526 11.3587 2.76562 11.0257 2.35742 10.6533C1.95638 10.2738 1.64128 9.82975 1.41211 9.32129C1.1901 8.81283 1.0791 8.20768 1.0791 7.50586C1.0791 6.29557 1.46582 5.30371 2.23926 4.53027C3.0127 3.75684 4.04036 3.30566 5.32227 3.17676V0.87793H7.04102V3.20898C8.30859 3.38802 9.30046 3.91797 10.0166 4.79883C10.7327 5.67253 11.0908 6.80762 11.0908 8.2041H7.98633C7.98633 7.34473 7.80729 6.70378 7.44922 6.28125C7.09831 5.85156 6.62565 5.63672 6.03125 5.63672C5.44401 5.63672 4.98926 5.80501 4.66699 6.1416C4.34473 6.47103 4.18359 6.92936 4.18359 7.5166C4.18359 8.06087 4.34115 8.49772 4.65625 8.82715C4.97135 9.15658 5.55501 9.49316 6.40723 9.83691C7.2666 10.1807 7.97201 10.5065 8.52344 10.8145C9.07487 11.1152 9.54036 11.459 9.91992 11.8457C10.2995 12.2253 10.5895 12.6621 10.79 13.1562C10.9906 13.6432 11.0908 14.2126 11.0908 14.8643C11.0908 16.0817 10.7113 17.07 9.95215 17.8291C9.19303 18.5882 8.14746 19.0358 6.81543 19.1719V21.3096H5.10742V19.1826C3.63932 19.0251 2.50065 18.5059 1.69141 17.625C0.889323 16.737 0.488281 15.5589 0.488281 14.0908H3.59277C3.59277 14.943 3.79329 15.5983 4.19434 16.0566C4.60254 16.5078 5.1862 16.7334 5.94531 16.7334C6.57552 16.7334 7.07324 16.5687 7.43848 16.2393C7.80371 15.9027 7.98633 15.4515 7.98633 14.8857Z" fill="#252B42"/>
</svg>
